<?xml version="1.0" encoding="UTF-8"?>
<svg width="391.68" height="190.13" version="1.1" xmlns="http://www.w3.org/2000/svg">
<title>EMI Records logo (2020)</title>
 <g transform="matrix(.20045 0 0 .20045 0 -.10023)">
  <path d="m0 949h1954v-948.5h-1954z" fill="#000105" fill-rule="evenodd"/>
  <g transform="translate(0 701.76)" fill="#f9f9f9" stroke="#000" stroke-width="3.5569">
   <path d="m257.47-229.06v-257.47h394.2v113.64h-223.73v88.783h223.73v113.64h-223.73v85.232h223.73v113.64h-394.2z"/>
   <path d="m744-229.11v-257.52l246.39 1.8677 41.869 120.38c40.247 115.71 44.125 125.88 46.744 122.59 0.6479-0.81385 20.032-56.214 43.075-123.11l41.897-121.63h237.02v514.94h-170.46v-140.99c0-79.806-1.3362-139.52-3.0791-137.61-1.6936 1.8556-21.895 58.508-44.891 125.89-22.997 67.386-44.148 129.35-47.002 137.7l-5.1906 15.179-114.31-1.9481-47.011-136.73c-25.856-75.199-47.789-138.32-48.739-140.28-0.95025-1.9532-1.8539 59.973-2.0081 137.61l-0.28037 141.16h-174.01z"/>
   <path d="m1504-229.06v-257.47h191.77v514.94h-191.77z"/>
  </g>
 </g>
</svg>
